<svg xmlns="http://www.w3.org/2000/svg" viewBox="0 0 1200 600" width="1200" height="600">
  <!-- Background gradient -->
  <defs>
    <linearGradient id="skyGradient" x1="0%" y1="0%" x2="0%" y2="100%">
      <stop offset="0%" stop-color="#7F5A83" />
      <stop offset="100%" stop-color="#0D324D" />
    </linearGradient>
  </defs>
  
  <!-- Sky background -->
  <rect width="1200" height="600" fill="url(#skyGradient)" />
  
  <!-- Stars -->
  <g fill="#FFFFFF" opacity="0.8">
    <circle cx="100" cy="50" r="1" />
    <circle cx="200" cy="80" r="1.5" />
    <circle cx="300" cy="30" r="1" />
    <circle cx="400" cy="70" r="1.2" />
    <circle cx="500" cy="40" r="1" />
    <circle cx="600" cy="60" r="1.3" />
    <circle cx="700" cy="50" r="1" />
    <circle cx="800" cy="30" r="1.5" />
    <circle cx="900" cy="70" r="1" />
    <circle cx="1000" cy="40" r="1.2" />
    <circle cx="1100" cy="60" r="1" />
    <circle cx="150" cy="100" r="1.3" />
    <circle cx="250" cy="120" r="1" />
    <circle cx="350" cy="90" r="1.5" />
    <circle cx="450" cy="110" r="1" />
    <circle cx="550" cy="80" r="1.2" />
    <circle cx="650" cy="100" r="1" />
    <circle cx="750" cy="120" r="1.3" />
    <circle cx="850" cy="90" r="1" />
    <circle cx="950" cy="110" r="1.5" />
    <circle cx="1050" cy="80" r="1" />
  </g>
  
  <!-- Ground -->
  <rect x="0" y="450" width="1200" height="150" fill="#2C5530" />
  
  <!-- Main Temple Structure -->
  <g>
    <!-- Base -->
    <rect x="400" y="350" width="400" height="100" fill="#E8D0B3" />
    
    <!-- Steps -->
    <rect x="350" y="450" width="500" height="10" fill="#D1B48C" />
    <rect x="375" y="460" width="450" height="10" fill="#D1B48C" />
    <rect x="400" y="470" width="400" height="10" fill="#D1B48C" />
    
    <!-- Main Dome -->
    <path d="M600,200 Q800,300 800,350 L400,350 Q400,300 600,200" fill="#F7E2C4" />
    
    <!-- Central Spire -->
    <path d="M600,100 L620,200 L580,200 Z" fill="#FFD700" />
    <circle cx="600" cy="100" r="10" fill="#FFD700" />
    
    <!-- Windows -->
    <rect x="450" y="380" width="40" height="60" rx="20" fill="#0D324D" opacity="0.7" />
    <rect x="550" y="380" width="40" height="60" rx="20" fill="#0D324D" opacity="0.7" />
    <rect x="650" y="380" width="40" height="60" rx="20" fill="#0D324D" opacity="0.7" />
    <rect x="750" y="380" width="40" height="60" rx="20" fill="#0D324D" opacity="0.7" />
    
    <!-- Door -->
    <rect x="575" y="400" width="50" height="80" fill="#5D4037" />
    <circle cx="590" cy="440" r="3" fill="#FFD700" />
  </g>
  
  <!-- Side Temples -->
  <g>
    <!-- Left Temple -->
    <rect x="200" y="400" width="150" height="50" fill="#E8D0B3" />
    <path d="M275,300 Q375,350 350,400 L200,400 Q175,350 275,300" fill="#F7E2C4" />
    <path d="M275,250 L285,300 L265,300 Z" fill="#FFD700" />
    <circle cx="275" cy="250" r="5" fill="#FFD700" />
    <rect x="250" y="410" width="20" height="30" rx="10" fill="#0D324D" opacity="0.7" />
    <rect x="280" y="410" width="20" height="30" rx="10" fill="#0D324D" opacity="0.7" />
    
    <!-- Right Temple -->
    <rect x="850" y="400" width="150" height="50" fill="#E8D0B3" />
    <path d="M925,300 Q1025,350 1000,400 L850,400 Q825,350 925,300" fill="#F7E2C4" />
    <path d="M925,250 L935,300 L915,300 Z" fill="#FFD700" />
    <circle cx="925" cy="250" r="5" fill="#FFD700" />
    <rect x="900" y="410" width="20" height="30" rx="10" fill="#0D324D" opacity="0.7" />
    <rect x="930" y="410" width="20" height="30" rx="10" fill="#0D324D" opacity="0.7" />
  </g>
  
  <!-- Trees -->
  <g>
    <!-- Left Trees -->
    <path d="M100,450 L120,450 L110,350 Z" fill="#2E7D32" />
    <rect x="105" y="450" width="10" height="20" fill="#5D4037" />
    
    <path d="M150,450 L180,450 L165,320 Z" fill="#2E7D32" />
    <rect x="160" y="450" width="10" height="20" fill="#5D4037" />
    
    <!-- Right Trees -->
    <path d="M1020,450 L1040,450 L1030,350 Z" fill="#2E7D32" />
    <rect x="1025" y="450" width="10" height="20" fill="#5D4037" />
    
    <path d="M1070,450 L1100,450 L1085,320 Z" fill="#2E7D32" />
    <rect x="1080" y="450" width="10" height="20" fill="#5D4037" />
  </g>
  
  <!-- Decorative Elements -->
  <g>
    <!-- Flags -->
    <line x1="620" y1="100" x2="620" y2="150" stroke="#FFD700" stroke-width="2" />
    <path d="M620,110 L640,120 L620,130" fill="#FF6B35" />
    
    <line x1="285" y1="250" x2="285" y2="280" stroke="#FFD700" stroke-width="1" />
    <path d="M285,255 L295,260 L285,265" fill="#FF6B35" />
    
    <line x1="935" y1="250" x2="935" y2="280" stroke="#FFD700" stroke-width="1" />
    <path d="M935,255 L945,260 L935,265" fill="#FF6B35" />
  </g>
</svg>